{
    "asset" : {
        "generator" : "Khronos glTF Blender I/O v1.5.17",
        "version" : "2.0"
    },
    "scene" : 0,
    "scenes" : [
        {
            "name" : "Scene",
            "nodes" : [
                0
            ]
        }
    ],
    "nodes" : [
        {
            "mesh" : 0,
            "name" : "Dark Rock Pro 4.001",
            "scale" : [
                0.06009858474135399,
                0.0623490996658802,
                0.06106584891676903
            ],
            "translation" : [
                0.06963297724723816,
                0.0365220345556736,
                -0.09523271024227142
            ]
        }
    ],
    "materials" : [
        {
            "doubleSided" : true,
            "name" : "Material.001",
            "pbrMetallicRoughness" : {
                "baseColorFactor" : [
                    0.02732088416814804,
                    0.02732088416814804,
                    0.02732088603079319,
                    1
                ],
                "roughnessFactor" : 0.30000001192092896
            }
        },
        {
            "doubleSided" : true,
            "name" : "Material.002",
            "pbrMetallicRoughness" : {
                "baseColorFactor" : [
                    0,
                    0,
                    0,
                    1
                ],
                "metallicFactor" : 0,
                "roughnessFactor" : 0.5
            }
        },
        {
            "doubleSided" : true,
            "name" : "Material.003",
            "pbrMetallicRoughness" : {
                "baseColorTexture" : {
                    "index" : 0
                },
                "metallicFactor" : 0,
                "roughnessFactor" : 0.5
            }
        },
        {
            "doubleSided" : true,
            "name" : "Material.004",
            "pbrMetallicRoughness" : {
                "baseColorFactor" : [
                    0,
                    0,
                    0,
                    1
                ],
                "metallicFactor" : 0,
                "roughnessFactor" : 0.5
            }
        }
    ],
    "meshes" : [
        {
            "name" : "Plane.001",
            "primitives" : [
                {
                    "attributes" : {
                        "POSITION" : 0,
                        "NORMAL" : 1,
                        "TEXCOORD_0" : 2
                    },
                    "indices" : 3,
                    "material" : 0
                },
                {
                    "attributes" : {
                        "POSITION" : 4,
                        "NORMAL" : 5,
                        "TEXCOORD_0" : 6
                    },
                    "indices" : 7,
                    "material" : 1
                },
                {
                    "attributes" : {
                        "POSITION" : 8,
                        "NORMAL" : 9,
                        "TEXCOORD_0" : 10
                    },
                    "indices" : 11,
                    "material" : 2
                },
                {
                    "attributes" : {
                        "POSITION" : 12,
                        "NORMAL" : 13,
                        "TEXCOORD_0" : 14
                    },
                    "indices" : 15,
                    "material" : 3
                }
            ]
        }
    ],
    "textures" : [
        {
            "sampler" : 0,
            "source" : 0
        }
    ],
    "images" : [
        {
            "bufferView" : 12,
            "mimeType" : "image/jpeg",
            "name" : "be-quiet_Logo_neg_RGB"
        }
    ],
    "accessors" : [
        {
            "bufferView" : 0,
            "componentType" : 5126,
            "count" : 503,
            "max" : [
                3.07035231590271,
                1.1911876201629639,
                -2.6622447967529297
            ],
            "min" : [
                2.82450532913208,
                0.5575294494628906,
                -3.2959036827087402
            ],
            "type" : "VEC3"
        },
        {
            "bufferView" : 1,
            "componentType" : 5126,
            "count" : 503,
            "type" : "VEC3"
        },
        {
            "bufferView" : 2,
            "componentType" : 5126,
            "count" : 503,
            "type" : "VEC2"
        },
        {
            "bufferView" : 3,
            "componentType" : 5123,
            "count" : 1536,
            "type" : "SCALAR"
        },
        {
            "bufferView" : 4,
            "componentType" : 5126,
            "count" : 94,
            "max" : [
                3.0570671558380127,
                1.1230506896972656,
                -2.730539321899414
            ],
            "min" : [
                3.0570671558380127,
                0.6256661415100098,
                -3.2276082038879395
            ],
            "type" : "VEC3"
        },
        {
            "bufferView" : 5,
            "componentType" : 5126,
            "count" : 94,
            "type" : "VEC3"
        },
        {
            "bufferView" : 6,
            "componentType" : 5126,
            "count" : 94,
            "type" : "VEC2"
        },
        {
            "bufferView" : 7,
            "componentType" : 5123,
            "count" : 108,
            "type" : "SCALAR"
        },
        {
            "bufferView" : 8,
            "componentType" : 5126,
            "count" : 6,
            "max" : [
                3.0570671558380127,
                0.9245398044586182,
                -2.7971913814544678
            ],
            "min" : [
                3.0570671558380127,
                0.8241772651672363,
                -3.160957098007202
            ],
            "type" : "VEC3"
        },
        {
            "bufferView" : 9,
            "componentType" : 5126,
            "count" : 6,
            "type" : "VEC3"
        },
        {
            "bufferView" : 10,
            "componentType" : 5126,
            "count" : 6,
            "type" : "VEC2"
        },
        {
            "bufferView" : 11,
            "componentType" : 5123,
            "count" : 6,
            "type" : "SCALAR"
        },
        {
            "bufferView" : 13,
            "componentType" : 5126,
            "count" : 8530,
            "max" : [
                3.0814602375030518,
                1.717394232749939,
                -2.092879295349121
            ],
            "min" : [
                2.88242244720459,
                -0.0031962990760803223,
                -3.818610429763794
            ],
            "type" : "VEC3"
        },
        {
            "bufferView" : 14,
            "componentType" : 5126,
            "count" : 8530,
            "type" : "VEC3"
        },
        {
            "bufferView" : 15,
            "componentType" : 5126,
            "count" : 8530,
            "type" : "VEC2"
        },
        {
            "bufferView" : 16,
            "componentType" : 5123,
            "count" : 12768,
            "type" : "SCALAR"
        }
    ],
    "bufferViews" : [
        {
            "buffer" : 0,
            "byteLength" : 6036,
            "byteOffset" : 0
        },
        {
            "buffer" : 0,
            "byteLength" : 6036,
            "byteOffset" : 6036
        },
        {
            "buffer" : 0,
            "byteLength" : 4024,
            "byteOffset" : 12072
        },
        {
            "buffer" : 0,
            "byteLength" : 3072,
            "byteOffset" : 16096
        },
        {
            "buffer" : 0,
            "byteLength" : 1128,
            "byteOffset" : 19168
        },
        {
            "buffer" : 0,
            "byteLength" : 1128,
            "byteOffset" : 20296
        },
        {
            "buffer" : 0,
            "byteLength" : 752,
            "byteOffset" : 21424
        },
        {
            "buffer" : 0,
            "byteLength" : 216,
            "byteOffset" : 22176
        },
        {
            "buffer" : 0,
            "byteLength" : 72,
            "byteOffset" : 22392
        },
        {
            "buffer" : 0,
            "byteLength" : 72,
            "byteOffset" : 22464
        },
        {
            "buffer" : 0,
            "byteLength" : 48,
            "byteOffset" : 22536
        },
        {
            "buffer" : 0,
            "byteLength" : 12,
            "byteOffset" : 22584
        },
        {
            "buffer" : 0,
            "byteLength" : 115122,
            "byteOffset" : 22596
        },
        {
            "buffer" : 0,
            "byteLength" : 102360,
            "byteOffset" : 137720
        },
        {
            "buffer" : 0,
            "byteLength" : 102360,
            "byteOffset" : 240080
        },
        {
            "buffer" : 0,
            "byteLength" : 68240,
            "byteOffset" : 342440
        },
        {
            "buffer" : 0,
            "byteLength" : 25536,
            "byteOffset" : 410680
        }
    ],
    "samplers" : [
        {
            "magFilter" : 9729,
            "minFilter" : 9987
        }
    ],
    "buffers" : [
        {
            "byteLength" : 436216,
            "uri" : "data:application/octet-stream;base64,"
        }
    ]
}
