{
    "asset" : {
        "generator" : "Khronos glTF Blender I/O v1.5.17",
        "version" : "2.0"
    },
    "scene" : 0,
    "scenes" : [
        {
            "name" : "Scene",
            "nodes" : [
                0
            ]
        }
    ],
    "nodes" : [
        {
            "mesh" : 0,
            "name" : "Dark Rock Pro 4.001",
            "scale" : [
                0.06009858474135399,
                0.0623490996658802,
                0.06106584891676903
            ]
        }
    ],
    "materials" : [
        {
            "doubleSided" : true,
            "name" : "Material.001",
            "pbrMetallicRoughness" : {
                "baseColorFactor" : [
                    0.02732088416814804,
                    0.02732088416814804,
                    0.02732088603079319,
                    1
                ],
                "roughnessFactor" : 0.30000001192092896
            }
        },
        {
            "doubleSided" : true,
            "name" : "Material.002",
            "pbrMetallicRoughness" : {
                "baseColorFactor" : [
                    0,
                    0,
                    0,
                    1
                ],
                "metallicFactor" : 0,
                "roughnessFactor" : 0.5
            }
        },
        {
            "doubleSided" : true,
            "name" : "Material.003",
            "pbrMetallicRoughness" : {
                "baseColorTexture" : {
                    "index" : 0
                },
                "metallicFactor" : 0,
                "roughnessFactor" : 0.5
            }
        },
        {
            "doubleSided" : true,
            "name" : "Material.004",
            "pbrMetallicRoughness" : {
                "baseColorFactor" : [
                    0,
                    0,
                    0,
                    1
                ],
                "metallicFactor" : 0,
                "roughnessFactor" : 0.5
            }
        }
    ],
    "meshes" : [
        {
            "name" : "Plane.001",
            "primitives" : [
                {
                    "attributes" : {
                        "POSITION" : 0,
                        "NORMAL" : 1,
                        "TEXCOORD_0" : 2
                    },
                    "indices" : 3,
                    "material" : 0
                },
                {
                    "attributes" : {
                        "POSITION" : 4,
                        "NORMAL" : 5,
                        "TEXCOORD_0" : 6
                    },
                    "indices" : 7,
                    "material" : 1
                },
                {
                    "attributes" : {
                        "POSITION" : 8,
                        "NORMAL" : 9,
                        "TEXCOORD_0" : 10
                    },
                    "indices" : 11,
                    "material" : 2
                },
                {
                    "attributes" : {
                        "POSITION" : 12,
                        "NORMAL" : 13,
                        "TEXCOORD_0" : 14
                    },
                    "indices" : 15,
                    "material" : 3
                }
            ]
        }
    ],
    "textures" : [
        {
            "sampler" : 0,
            "source" : 0
        }
    ],
    "images" : [
        {
            "bufferView" : 12,
            "mimeType" : "image/jpeg",
            "name" : "be-quiet_Logo_neg_RGB"
        }
    ],
    "accessors" : [
        {
            "bufferView" : 0,
            "componentType" : 5126,
            "count" : 503,
            "max" : [
                0.0999990701675415,
                0.3286377191543579,
                0.2992265224456787
            ],
            "min" : [
                -0.14584791660308838,
                -0.30502045154571533,
                -0.33443236351013184
            ],
            "type" : "VEC3"
        },
        {
            "bufferView" : 1,
            "componentType" : 5126,
            "count" : 503,
            "type" : "VEC3"
        },
        {
            "bufferView" : 2,
            "componentType" : 5126,
            "count" : 503,
            "type" : "VEC2"
        },
        {
            "bufferView" : 3,
            "componentType" : 5123,
            "count" : 1536,
            "type" : "SCALAR"
        },
        {
            "bufferView" : 4,
            "componentType" : 5126,
            "count" : 101,
            "max" : [
                0.08671391010284424,
                0.26050078868865967,
                0.23093199729919434
            ],
            "min" : [
                0.08671391010284424,
                -0.2368837594985962,
                -0.26613688468933105
            ],
            "type" : "VEC3"
        },
        {
            "bufferView" : 5,
            "componentType" : 5126,
            "count" : 101,
            "type" : "VEC3"
        },
        {
            "bufferView" : 6,
            "componentType" : 5126,
            "count" : 101,
            "type" : "VEC2"
        },
        {
            "bufferView" : 7,
            "componentType" : 5123,
            "count" : 108,
            "type" : "SCALAR"
        },
        {
            "bufferView" : 8,
            "componentType" : 5126,
            "count" : 6,
            "max" : [
                0.08671391010284424,
                0.06198990345001221,
                0.16427993774414062
            ],
            "min" : [
                0.08671391010284424,
                -0.03837263584136963,
                -0.19948577880859375
            ],
            "type" : "VEC3"
        },
        {
            "bufferView" : 9,
            "componentType" : 5126,
            "count" : 6,
            "type" : "VEC3"
        },
        {
            "bufferView" : 10,
            "componentType" : 5126,
            "count" : 6,
            "type" : "VEC2"
        },
        {
            "bufferView" : 11,
            "componentType" : 5123,
            "count" : 6,
            "type" : "SCALAR"
        },
        {
            "bufferView" : 13,
            "componentType" : 5126,
            "count" : 8530,
            "max" : [
                0.1111069917678833,
                0.8548442721366882,
                0.8685920238494873
            ],
            "min" : [
                -0.08793079853057861,
                -0.8657462000846863,
                -0.8571392297744751
            ],
            "type" : "VEC3"
        },
        {
            "bufferView" : 14,
            "componentType" : 5126,
            "count" : 8530,
            "type" : "VEC3"
        },
        {
            "bufferView" : 15,
            "componentType" : 5126,
            "count" : 8530,
            "type" : "VEC2"
        },
        {
            "bufferView" : 16,
            "componentType" : 5123,
            "count" : 12768,
            "type" : "SCALAR"
        }
    ],
    "bufferViews" : [
        {
            "buffer" : 0,
            "byteLength" : 6036,
            "byteOffset" : 0
        },
        {
            "buffer" : 0,
            "byteLength" : 6036,
            "byteOffset" : 6036
        },
        {
            "buffer" : 0,
            "byteLength" : 4024,
            "byteOffset" : 12072
        },
        {
            "buffer" : 0,
            "byteLength" : 3072,
            "byteOffset" : 16096
        },
        {
            "buffer" : 0,
            "byteLength" : 1212,
            "byteOffset" : 19168
        },
        {
            "buffer" : 0,
            "byteLength" : 1212,
            "byteOffset" : 20380
        },
        {
            "buffer" : 0,
            "byteLength" : 808,
            "byteOffset" : 21592
        },
        {
            "buffer" : 0,
            "byteLength" : 216,
            "byteOffset" : 22400
        },
        {
            "buffer" : 0,
            "byteLength" : 72,
            "byteOffset" : 22616
        },
        {
            "buffer" : 0,
            "byteLength" : 72,
            "byteOffset" : 22688
        },
        {
            "buffer" : 0,
            "byteLength" : 48,
            "byteOffset" : 22760
        },
        {
            "buffer" : 0,
            "byteLength" : 12,
            "byteOffset" : 22808
        },
        {
            "buffer" : 0,
            "byteLength" : 115122,
            "byteOffset" : 22820
        },
        {
            "buffer" : 0,
            "byteLength" : 102360,
            "byteOffset" : 137944
        },
        {
            "buffer" : 0,
            "byteLength" : 102360,
            "byteOffset" : 240304
        },
        {
            "buffer" : 0,
            "byteLength" : 68240,
            "byteOffset" : 342664
        },
        {
            "buffer" : 0,
            "byteLength" : 25536,
            "byteOffset" : 410904
        }
    ],
    "samplers" : [
        {
            "magFilter" : 9729,
            "minFilter" : 9987
        }
    ],
    "buffers" : [
        {
            "byteLength" : 436440,
            "uri" : "data:application/octet-stream;base64,"
        }
    ]
}
