{
    "asset" : {
        "generator" : "Khronos glTF Blender I/O v1.5.17",
        "version" : "2.0"
    },
    "scene" : 0,
    "scenes" : [
        {
            "name" : "Scene",
            "nodes" : [
                0,
                1
            ]
        }
    ],
    "nodes" : [
        {
            "mesh" : 0,
            "name" : "Dark Rock Pro 4",
            "scale" : [
                0.06009858474135399,
                0.0623490996658802,
                0.06106584891676903
            ]
        },
        {
            "name" : "Camera",
            "rotation" : [
                0.595346212387085,
                0.2593434751033783,
                -0.21136073768138885,
                0.7305001616477966
            ],
            "translation" : [
                0.3270226716995239,
                0.10156533867120743,
                0.40046799182891846
            ]
        }
    ],
    "materials" : [
        {
            "doubleSided" : true,
            "name" : "Material.005",
            "pbrMetallicRoughness" : {
                "baseColorFactor" : [
                    0.02732088416814804,
                    0.02732088416814804,
                    0.02732088603079319,
                    1
                ],
                "roughnessFactor" : 0.30000001192092896
            }
        },
        {
            "doubleSided" : true,
            "name" : "Material",
            "pbrMetallicRoughness" : {
                "baseColorFactor" : [
                    0.02732088416814804,
                    0.02732088416814804,
                    0.02732088603079319,
                    1
                ],
                "roughnessFactor" : 0.30000001192092896
            }
        },
        {
            "doubleSided" : true,
            "name" : "Material.004",
            "pbrMetallicRoughness" : {
                "baseColorFactor" : [
                    0.800000011920929,
                    0.800000011920929,
                    0.800000011920929,
                    1
                ],
                "roughnessFactor" : 0.28014183044433594
            }
        },
        {
            "doubleSided" : true,
            "name" : "Material.001",
            "pbrMetallicRoughness" : {
                "baseColorFactor" : [
                    0,
                    0,
                    0,
                    1
                ],
                "metallicFactor" : 0,
                "roughnessFactor" : 0.5
            }
        },
        {
            "doubleSided" : true,
            "name" : "Material.002",
            "pbrMetallicRoughness" : {
                "baseColorTexture" : {
                    "index" : 0
                },
                "metallicFactor" : 0,
                "roughnessFactor" : 0.5
            }
        }
    ],
    "meshes" : [
        {
            "name" : "Plane.015",
            "primitives" : [
                {
                    "attributes" : {
                        "POSITION" : 0,
                        "NORMAL" : 1,
                        "TEXCOORD_0" : 2
                    },
                    "indices" : 3,
                    "material" : 0
                },
                {
                    "attributes" : {
                        "POSITION" : 4,
                        "NORMAL" : 5,
                        "TEXCOORD_0" : 6
                    },
                    "indices" : 7,
                    "material" : 1
                },
                {
                    "attributes" : {
                        "POSITION" : 8,
                        "NORMAL" : 9,
                        "TEXCOORD_0" : 10
                    },
                    "indices" : 11,
                    "material" : 2
                },
                {
                    "attributes" : {
                        "POSITION" : 12,
                        "NORMAL" : 13,
                        "TEXCOORD_0" : 14
                    },
                    "indices" : 15,
                    "material" : 3
                },
                {
                    "attributes" : {
                        "POSITION" : 16,
                        "NORMAL" : 17,
                        "TEXCOORD_0" : 18
                    },
                    "indices" : 19,
                    "material" : 4
                }
            ]
        }
    ],
    "textures" : [
        {
            "sampler" : 0,
            "source" : 0
        }
    ],
    "images" : [
        {
            "bufferView" : 20,
            "mimeType" : "image/jpeg",
            "name" : "be-quiet_Logo_neg_RGB"
        }
    ],
    "accessors" : [
        {
            "bufferView" : 0,
            "componentType" : 5126,
            "count" : 32,
            "max" : [
                0.08189873397350311,
                1.0233662128448486,
                0.07302752882242203
            ],
            "min" : [
                -0.39333659410476685,
                1.003366231918335,
                -0.07302772998809814
            ],
            "type" : "VEC3"
        },
        {
            "bufferView" : 1,
            "componentType" : 5126,
            "count" : 32,
            "type" : "VEC3"
        },
        {
            "bufferView" : 2,
            "componentType" : 5126,
            "count" : 32,
            "type" : "VEC2"
        },
        {
            "bufferView" : 3,
            "componentType" : 5123,
            "count" : 60,
            "type" : "SCALAR"
        },
        {
            "bufferView" : 4,
            "componentType" : 5126,
            "count" : 33711,
            "max" : [
                0.8626382946968079,
                1.0233662128448486,
                1.07660973072052
            ],
            "min" : [
                -1.1740760803222656,
                -1.577685832977295,
                -1.07660973072052
            ],
            "type" : "VEC3"
        },
        {
            "bufferView" : 5,
            "componentType" : 5126,
            "count" : 33711,
            "type" : "VEC3"
        },
        {
            "bufferView" : 6,
            "componentType" : 5126,
            "count" : 33711,
            "type" : "VEC2"
        },
        {
            "bufferView" : 7,
            "componentType" : 5123,
            "count" : 104394,
            "type" : "SCALAR"
        },
        {
            "bufferView" : 8,
            "componentType" : 5126,
            "count" : 16536,
            "max" : [
                1.1534273624420166,
                1.0334184169769287,
                1.1135519742965698
            ],
            "min" : [
                -0.9379684925079346,
                -1.0576362609863281,
                -1.1135520935058594
            ],
            "type" : "VEC3"
        },
        {
            "bufferView" : 9,
            "componentType" : 5126,
            "count" : 16536,
            "type" : "VEC3"
        },
        {
            "bufferView" : 10,
            "componentType" : 5126,
            "count" : 16536,
            "type" : "VEC2"
        },
        {
            "bufferView" : 11,
            "componentType" : 5123,
            "count" : 90708,
            "type" : "SCALAR"
        },
        {
            "bufferView" : 12,
            "componentType" : 5126,
            "count" : 11126,
            "max" : [
                1.2502739429473877,
                0.9495474100112915,
                1.0752687454223633
            ],
            "min" : [
                -0.31921839714050293,
                -1.176253080368042,
                -1.0752971172332764
            ],
            "type" : "VEC3"
        },
        {
            "bufferView" : 13,
            "componentType" : 5126,
            "count" : 11126,
            "type" : "VEC3"
        },
        {
            "bufferView" : 14,
            "componentType" : 5126,
            "count" : 11126,
            "type" : "VEC2"
        },
        {
            "bufferView" : 15,
            "componentType" : 5123,
            "count" : 19068,
            "type" : "SCALAR"
        },
        {
            "bufferView" : 16,
            "componentType" : 5126,
            "count" : 4,
            "max" : [
                -0.04383445531129837,
                -0.07470154762268066,
                0.21062611043453217
            ],
            "min" : [
                -0.04383445531129837,
                -0.1909325122833252,
                -0.21065449714660645
            ],
            "type" : "VEC3"
        },
        {
            "bufferView" : 17,
            "componentType" : 5126,
            "count" : 4,
            "type" : "VEC3"
        },
        {
            "bufferView" : 18,
            "componentType" : 5126,
            "count" : 4,
            "type" : "VEC2"
        },
        {
            "bufferView" : 19,
            "componentType" : 5123,
            "count" : 6,
            "type" : "SCALAR"
        }
    ],
    "bufferViews" : [
        {
            "buffer" : 0,
            "byteLength" : 384,
            "byteOffset" : 0
        },
        {
            "buffer" : 0,
            "byteLength" : 384,
            "byteOffset" : 384
        },
        {
            "buffer" : 0,
            "byteLength" : 256,
            "byteOffset" : 768
        },
        {
            "buffer" : 0,
            "byteLength" : 120,
            "byteOffset" : 1024
        },
        {
            "buffer" : 0,
            "byteLength" : 404532,
            "byteOffset" : 1144
        },
        {
            "buffer" : 0,
            "byteLength" : 404532,
            "byteOffset" : 405676
        },
        {
            "buffer" : 0,
            "byteLength" : 269688,
            "byteOffset" : 810208
        },
        {
            "buffer" : 0,
            "byteLength" : 208788,
            "byteOffset" : 1079896
        },
        {
            "buffer" : 0,
            "byteLength" : 198432,
            "byteOffset" : 1288684
        },
        {
            "buffer" : 0,
            "byteLength" : 198432,
            "byteOffset" : 1487116
        },
        {
            "buffer" : 0,
            "byteLength" : 132288,
            "byteOffset" : 1685548
        },
        {
            "buffer" : 0,
            "byteLength" : 181416,
            "byteOffset" : 1817836
        },
        {
            "buffer" : 0,
            "byteLength" : 133512,
            "byteOffset" : 1999252
        },
        {
            "buffer" : 0,
            "byteLength" : 133512,
            "byteOffset" : 2132764
        },
        {
            "buffer" : 0,
            "byteLength" : 89008,
            "byteOffset" : 2266276
        },
        {
            "buffer" : 0,
            "byteLength" : 38136,
            "byteOffset" : 2355284
        },
        {
            "buffer" : 0,
            "byteLength" : 48,
            "byteOffset" : 2393420
        },
        {
            "buffer" : 0,
            "byteLength" : 48,
            "byteOffset" : 2393468
        },
        {
            "buffer" : 0,
            "byteLength" : 32,
            "byteOffset" : 2393516
        },
        {
            "buffer" : 0,
            "byteLength" : 12,
            "byteOffset" : 2393548
        },
        {
            "buffer" : 0,
            "byteLength" : 115122,
            "byteOffset" : 2393560
        }
    ],
    "samplers" : [
        {
            "magFilter" : 9729,
            "minFilter" : 9987
        }
    ],
    "buffers" : [
        {
            "byteLength" : 2508684,
            "uri" : "data:application/octet-stream;base64,"
        }
    ]
}
