{
  "accessors": [
    {
      "bufferView": 2,
      "componentType": 5126,
      "count": 24,
      "max": [
        0.081898733973503113,
        1.0233662128448486,
        0.073027528822422028
      ],
      "min": [
        -0.39333659410476685,
        1.003366231918335,
        -0.073027729988098145
      ],
      "type": "VEC3"
    },
    {
      "bufferView": 2,
      "byteOffset": 288,
      "componentType": 5126,
      "count": 24,
      "max": [
        0,
        1,
        -0
      ],
      "min": [
        0,
        -1,
        -0
      ],
      "type": "VEC3"
    },
    {
      "bufferView": 1,
      "componentType": 5126,
      "count": 24,
      "max": [
        0.94942384958267212,
        0.95058703422546387
      ],
      "min": [
        0.035423923283815384,
        0.086026117205619812
      ],
      "type": "VEC2"
    },
    {
      "bufferView": 0,
      "componentType": 5125,
      "count": 60,
      "max": [
        23
      ],
      "min": [
        0
      ],
      "type": "SCALAR"
    },
    {
      "bufferView": 2,
      "byteOffset": 576,
      "componentType": 5126,
      "count": 34111,
      "max": [
        1.1889188289642334,
        1.0233662128448486,
        1.07660973072052
      ],
      "min": [
        -1.1740760803222656,
        -1.5776858329772949,
        -1.07660973072052
      ],
      "type": "VEC3"
    },
    {
      "bufferView": 2,
      "byteOffset": 409908,
      "componentType": 5126,
      "count": 34111,
      "max": [
        1,
        1,
        1
      ],
      "min": [
        -1,
        -1,
        -1
      ],
      "type": "VEC3"
    },
    {
      "bufferView": 1,
      "byteOffset": 192,
      "componentType": 5126,
      "count": 34111,
      "max": [
        1,
        1.0000001192092896
      ],
      "min": [
        0,
        0
      ],
      "type": "VEC2"
    },
    {
      "bufferView": 0,
      "byteOffset": 240,
      "componentType": 5125,
      "count": 106248,
      "max": [
        34110
      ],
      "min": [
        0
      ],
      "type": "SCALAR"
    },
    {
      "bufferView": 2,
      "byteOffset": 819240,
      "componentType": 5126,
      "count": 16536,
      "max": [
        1.1534273624420166,
        1.0334184169769287,
        1.1135519742965698
      ],
      "min": [
        -0.93796849250793457,
        -1.0576362609863281,
        -1.1135520935058594
      ],
      "type": "VEC3"
    },
    {
      "bufferView": 2,
      "byteOffset": 1017672,
      "componentType": 5126,
      "count": 16536,
      "max": [
        1,
        1,
        1
      ],
      "min": [
        -1,
        -1,
        -1
      ],
      "type": "VEC3"
    },
    {
      "bufferView": 1,
      "byteOffset": 273080,
      "componentType": 5126,
      "count": 16536,
      "max": [
        1,
        1
      ],
      "min": [
        0,
        0
      ],
      "type": "VEC2"
    },
    {
      "bufferView": 0,
      "byteOffset": 425232,
      "componentType": 5125,
      "count": 90708,
      "max": [
        16535
      ],
      "min": [
        0
      ],
      "type": "SCALAR"
    },
    {
      "bufferView": 2,
      "byteOffset": 1216104,
      "componentType": 5126,
      "count": 10977,
      "max": [
        1.2502739429473877,
        0.9495474100112915,
        1.0752687454223633
      ],
      "min": [
        -0.31921839714050293,
        -1.176253080368042,
        -1.0752971172332764
      ],
      "type": "VEC3"
    },
    {
      "bufferView": 2,
      "byteOffset": 1347828,
      "componentType": 5126,
      "count": 10977,
      "max": [
        1,
        1,
        1
      ],
      "min": [
        -1,
        -1,
        -1
      ],
      "type": "VEC3"
    },
    {
      "bufferView": 1,
      "byteOffset": 405368,
      "componentType": 5126,
      "count": 10977,
      "max": [
        1.2394400835037231,
        1.8994340896606445
      ],
      "min": [
        -0.24002130329608917,
        -0.8994336724281311
      ],
      "type": "VEC2"
    },
    {
      "bufferView": 0,
      "byteOffset": 788064,
      "componentType": 5125,
      "count": 19176,
      "max": [
        10976
      ],
      "min": [
        0
      ],
      "type": "SCALAR"
    },
    {
      "bufferView": 2,
      "byteOffset": 1479552,
      "componentType": 5126,
      "count": 8,
      "max": [
        1.1756336688995361,
        0.098746657371520996,
        0.21062611043453217
      ],
      "min": [
        -0.04383445531129837,
        -0.1909325122833252,
        -0.21065449714660645
      ],
      "type": "VEC3"
    },
    {
      "bufferView": 2,
      "byteOffset": 1479648,
      "componentType": 5126,
      "count": 8,
      "max": [
        1,
        0,
        0
      ],
      "min": [
        1,
        0,
        0
      ],
      "type": "VEC3"
    },
    {
      "bufferView": 1,
      "byteOffset": 493184,
      "componentType": 5126,
      "count": 8,
      "max": [
        0.94672387838363647,
        0.88061892986297607
      ],
      "min": [
        0.050266660749912262,
        0.1193811297416687
      ],
      "type": "VEC2"
    },
    {
      "bufferView": 0,
      "byteOffset": 864768,
      "componentType": 5125,
      "count": 12,
      "max": [
        7
      ],
      "min": [
        0
      ],
      "type": "SCALAR"
    },
    {
      "bufferView": 2,
      "byteOffset": 1479744,
      "componentType": 5126,
      "count": 8512,
      "max": [
        1.2234400510787964,
        0.89469420909881592,
        0.85911774635314941
      ],
      "min": [
        1.024402379989624,
        -0.81624960899353027,
        -0.87230640649795532
      ],
      "type": "VEC3"
    },
    {
      "bufferView": 2,
      "byteOffset": 1581888,
      "componentType": 5126,
      "count": 8512,
      "max": [
        0.97893112897872925,
        0.99761354923248291,
        0.99835377931594849
      ],
      "min": [
        -0.97694838047027588,
        -0.99927568435668945,
        -0.99238336086273193
      ],
      "type": "VEC3"
    },
    {
      "bufferView": 1,
      "byteOffset": 493248,
      "componentType": 5126,
      "count": 8512,
      "max": [
        2.2778944969177246,
        1.1169239282608032
      ],
      "min": [
        -0.33630388975143433,
        -1.0879617929458618
      ],
      "type": "VEC2"
    },
    {
      "bufferView": 0,
      "byteOffset": 864816,
      "componentType": 5125,
      "count": 12768,
      "max": [
        8511
      ],
      "min": [
        0
      ],
      "type": "SCALAR"
    },
    {
      "bufferView": 2,
      "byteOffset": 1684032,
      "componentType": 5126,
      "count": 8512,
      "max": [
        0.12781979143619537,
        0.98034113645553589,
        1.0020185708999634
      ],
      "min": [
        -0.090701326727867126,
        -1.0011191368103027,
        -1.0031601190567017
      ],
      "type": "VEC3"
    },
    {
      "bufferView": 2,
      "byteOffset": 1786176,
      "componentType": 5126,
      "count": 8512,
      "max": [
        0.98100507259368896,
        0.99756258726119995,
        0.99830174446105957
      ],
      "min": [
        -0.97921180725097656,
        -0.99919438362121582,
        -0.99204891920089722
      ],
      "type": "VEC3"
    },
    {
      "bufferView": 1,
      "byteOffset": 561344,
      "componentType": 5126,
      "count": 8512,
      "max": [
        2.2778944969177246,
        1.1169239282608032
      ],
      "min": [
        -0.33630388975143433,
        -1.0879617929458618
      ],
      "type": "VEC2"
    },
    {
      "bufferView": 0,
      "byteOffset": 915888,
      "componentType": 5125,
      "count": 12768,
      "max": [
        8511
      ],
      "min": [
        0
      ],
      "type": "SCALAR"
    },
    {
      "bufferView": 3,
      "componentType": 5126,
      "count": 51,
      "max": [
        2.0833332538604736
      ],
      "min": [
        0
      ],
      "type": "SCALAR"
    },
    {
      "bufferView": 5,
      "componentType": 5126,
      "count": 51,
      "max": [
        1,
        0,
        -0,
        1
      ],
      "min": [
        -0.99802428483963013,
        0,
        -0,
        -4.3720842057837217e-08
      ],
      "type": "VEC4"
    },
    {
      "bufferView": 3,
      "byteOffset": 204,
      "componentType": 5126,
      "count": 51,
      "max": [
        2.0833332538604736
      ],
      "min": [
        0
      ],
      "type": "SCALAR"
    },
    {
      "bufferView": 4,
      "componentType": 5126,
      "count": 51,
      "max": [
        0.060098584741353989,
        0.062349099665880203,
        0.06234409287571907
      ],
      "min": [
        0.060098584741353989,
        0.061070963740348816,
        0.061065848916769028
      ],
      "type": "VEC3"
    },
    {
      "bufferView": 3,
      "byteOffset": 408,
      "componentType": 5126,
      "count": 51,
      "max": [
        2.0833332538604736
      ],
      "min": [
        0
      ],
      "type": "SCALAR"
    },
    {
      "bufferView": 5,
      "byteOffset": 816,
      "componentType": 5126,
      "count": 51,
      "max": [
        1,
        0,
        -0,
        1
      ],
      "min": [
        -0.99802428483963013,
        0,
        -0,
        -4.3720842057837217e-08
      ],
      "type": "VEC4"
    },
    {
      "bufferView": 3,
      "byteOffset": 612,
      "componentType": 5126,
      "count": 51,
      "max": [
        2.0833332538604736
      ],
      "min": [
        0
      ],
      "type": "SCALAR"
    },
    {
      "bufferView": 4,
      "byteOffset": 612,
      "componentType": 5126,
      "count": 51,
      "max": [
        0.060098584741353989,
        0.062349099665880203,
        0.06234409287571907
      ],
      "min": [
        0.060098584741353989,
        0.061070963740348816,
        0.061065848916769028
      ],
      "type": "VEC3"
    }
  ],
  "animations": [
    {
      "channels": [
        {
          "sampler": 0,
          "target": {
            "node": 10,
            "path": "rotation"
          }
        },
        {
          "sampler": 1,
          "target": {
            "node": 10,
            "path": "scale"
          }
        },
        {
          "sampler": 2,
          "target": {
            "node": 12,
            "path": "rotation"
          }
        },
        {
          "sampler": 3,
          "target": {
            "node": 12,
            "path": "scale"
          }
        }
      ],
      "name": "Animation",
      "samplers": [
        {
          "input": 28,
          "interpolation": "LINEAR",
          "output": 29
        },
        {
          "input": 30,
          "interpolation": "LINEAR",
          "output": 31
        },
        {
          "input": 32,
          "interpolation": "LINEAR",
          "output": 33
        },
        {
          "input": 34,
          "interpolation": "LINEAR",
          "output": 35
        }
      ]
    }
  ],
  "asset": {
    "extras": {
      "author": "Blue Lantern (https://sketchfab.com/genoris2)",
      "license": "CC-BY-4.0 (http://creativecommons.org/licenses/by/4.0/)",
      "source": "https://sketchfab.com/3d-models/dark-rock-pro-4-72dc0594a3d64a0b841425491c3c8fd2",
      "title": "Dark Rock Pro 4"
    },
    "generator": "Sketchfab-9.95.0",
    "version": "2.0"
  },
  "bufferViews": [
    {
      "buffer": 0,
      "byteLength": 966960,
      "byteOffset": 0,
      "name": "floatBufferViews",
      "target": 34963
    },
    {
      "buffer": 0,
      "byteLength": 629440,
      "byteOffset": 966960,
      "byteStride": 8,
      "name": "floatBufferViews",
      "target": 34962
    },
    {
      "buffer": 0,
      "byteLength": 1888320,
      "byteOffset": 1596400,
      "byteStride": 12,
      "name": "floatBufferViews",
      "target": 34962
    },
    {
      "buffer": 0,
      "byteLength": 816,
      "byteOffset": 3484720,
      "name": "floatBufferViews"
    },
    {
      "buffer": 0,
      "byteLength": 1224,
      "byteOffset": 3485536,
      "byteStride": 12,
      "name": "floatBufferViews"
    },
    {
      "buffer": 0,
      "byteLength": 1632,
      "byteOffset": 3486760,
      "byteStride": 16,
      "name": "floatBufferViews"
    }
  ],
  "buffers": [
    {
      "byteLength": 3488392,
      "uri": "scene.bin"
    }
  ],
  "images": [
    {
      "uri": "textures/Material.005_baseColor.jpeg"
    }
  ],
  "materials": [
    {
      "doubleSided": true,
      "emissiveFactor": [
        0,
        0,
        0
      ],
      "name": "Material.005",
      "pbrMetallicRoughness": {
        "baseColorFactor": [
          1,
          1,
          1,
          1
        ],
        "baseColorTexture": {
          "index": 0,
          "texCoord": 0
        },
        "metallicFactor": 1,
        "roughnessFactor": 0.29999999999999999
      }
    },
    {
      "doubleSided": true,
      "emissiveFactor": [
        0,
        0,
        0
      ],
      "name": "Material",
      "pbrMetallicRoughness": {
        "baseColorFactor": [
          0.027320899999999999,
          0.027320899999999999,
          0.027320899999999999,
          1
        ],
        "metallicFactor": 1,
        "roughnessFactor": 0.29999999999999999
      }
    },
    {
      "doubleSided": true,
      "emissiveFactor": [
        0,
        0,
        0
      ],
      "name": "Material.004",
      "pbrMetallicRoughness": {
        "baseColorFactor": [
          0.80000000000000004,
          0.80000000000000004,
          0.80000000000000004,
          1
        ],
        "metallicFactor": 1,
        "roughnessFactor": 0.280142
      }
    },
    {
      "doubleSided": true,
      "emissiveFactor": [
        0,
        0,
        0
      ],
      "name": "Material.001",
      "pbrMetallicRoughness": {
        "baseColorFactor": [
          0,
          0,
          0,
          1
        ],
        "metallicFactor": 0,
        "roughnessFactor": 0.5
      }
    },
    {
      "doubleSided": true,
      "emissiveFactor": [
        0,
        0,
        0
      ],
      "name": "Material.002",
      "pbrMetallicRoughness": {
        "baseColorFactor": [
          1,
          1,
          1,
          1
        ],
        "baseColorTexture": {
          "index": 1,
          "texCoord": 0
        },
        "metallicFactor": 0,
        "roughnessFactor": 0.5
      }
    },
    {
      "doubleSided": true,
      "emissiveFactor": [
        0,
        0,
        0
      ],
      "name": "Material.003",
      "pbrMetallicRoughness": {
        "baseColorFactor": [
          0.0290995,
          0.0290995,
          0.0290995,
          1
        ],
        "metallicFactor": 0,
        "roughnessFactor": 0.5
      }
    }
  ],
  "meshes": [
    {
      "primitives": [
        {
          "attributes": {
            "NORMAL": 1,
            "POSITION": 0,
            "TEXCOORD_0": 2
          },
          "indices": 3,
          "material": 0,
          "mode": 4
        }
      ]
    },
    {
      "primitives": [
        {
          "attributes": {
            "NORMAL": 5,
            "POSITION": 4,
            "TEXCOORD_0": 6
          },
          "indices": 7,
          "material": 1,
          "mode": 4
        }
      ]
    },
    {
      "primitives": [
        {
          "attributes": {
            "NORMAL": 9,
            "POSITION": 8,
            "TEXCOORD_0": 10
          },
          "indices": 11,
          "material": 2,
          "mode": 4
        }
      ]
    },
    {
      "primitives": [
        {
          "attributes": {
            "NORMAL": 13,
            "POSITION": 12,
            "TEXCOORD_0": 14
          },
          "indices": 15,
          "material": 3,
          "mode": 4
        }
      ]
    },
    {
      "primitives": [
        {
          "attributes": {
            "NORMAL": 17,
            "POSITION": 16,
            "TEXCOORD_0": 18
          },
          "indices": 19,
          "material": 4,
          "mode": 4
        }
      ]
    },
    {
      "primitives": [
        {
          "attributes": {
            "NORMAL": 21,
            "POSITION": 20,
            "TEXCOORD_0": 22
          },
          "indices": 23,
          "material": 5,
          "mode": 4
        }
      ]
    },
    {
      "primitives": [
        {
          "attributes": {
            "NORMAL": 25,
            "POSITION": 24,
            "TEXCOORD_0": 26
          },
          "indices": 27,
          "material": 5,
          "mode": 4
        }
      ]
    }
  ],
  "nodes": [
    {
      "children": [
        1
      ],
      "name": "RootNode (gltf orientation matrix)",
      "rotation": [
        -0.70710678118654746,
        -0,
        -0,
        0.70710678118654757
      ]
    },
    {
      "children": [
        2
      ],
      "name": "RootNode (model correction matrix)"
    },
    {
      "children": [
        3
      ],
      "name": "root"
    },
    {
      "children": [
        4,
        10,
        12
      ],
      "matrix": [
        1,
        0,
        0,
        0,
        0,
        2.2204460492503131e-16,
        1,
        0,
        0,
        -1,
        2.2204460492503131e-16,
        0,
        0,
        0,
        0,
        1
      ],
      "name": "GLTF_SceneRootNode"
    },
    {
      "children": [
        5,
        6,
        7,
        8,
        9
      ],
      "matrix": [
        0.060098584741353989,
        0,
        0,
        0,
        0,
        0.062349099665880203,
        0,
        0,
        0,
        0,
        0.061065848916769028,
        0,
        0,
        0,
        0,
        1
      ],
      "name": "Dark Rock Pro 4_0"
    },
    {
      "mesh": 0,
      "name": ""
    },
    {
      "mesh": 1,
      "name": ""
    },
    {
      "mesh": 2,
      "name": ""
    },
    {
      "mesh": 3,
      "name": ""
    },
    {
      "mesh": 4,
      "name": ""
    },
    {
      "children": [
        11
      ],
      "name": "Fan_1_1",
      "scale": [
        0.060098584741353989,
        0.062349099665880203,
        0.061065848916769028
      ]
    },
    {
      "mesh": 5,
      "name": ""
    },
    {
      "children": [
        13
      ],
      "name": "Fan_2_2",
      "scale": [
        0.060098584741353989,
        0.062349099665880203,
        0.061065848916769028
      ],
      "translation": [
        -0.0079946685582399368,
        -0.0080200955271720886,
        0.0020160828717052937
      ]
    },
    {
      "mesh": 6,
      "name": ""
    }
  ],
  "samplers": [
    {
      "magFilter": 9729,
      "minFilter": 9729,
      "wrapS": 10497,
      "wrapT": 10497
    },
    {
      "magFilter": 9729,
      "minFilter": 9987,
      "wrapS": 10497,
      "wrapT": 10497
    }
  ],
  "scene": 0,
  "scenes": [
    {
      "name": "OSG_Scene",
      "nodes": [
        0
      ]
    }
  ],
  "textures": [
    {
      "sampler": 0,
      "source": 0
    },
    {
      "sampler": 1,
      "source": 0
    }
  ]
}

